
        <svg xmlns="http://www.w3.org/2000/svg" xmlns:xlink="http://www.w3.org/1999/xlink" version="1.1" width="3162.3083859332733" 
        height="838.5933273219117" viewBox="0 0 3162.3083859332733 838.5933273219117">
			
			<g transform="scale(8.115419296663662) translate(10, 10)">
				<defs id="SvgjsDefs2858"></defs><g id="SvgjsG2859" featureKey="QMusi1-0" transform="matrix(24.85336392979027,0,0,24.85336392979027,-20.479171901849195,-20.454318857896606)" fill="#390088"><g xmlns="http://www.w3.org/2000/svg"><path d="M3.726,1.855C3.44,2.127,3.042,2.237,2.661,2.292c-0.34,0.05-0.695,0.071-0.999,0.203C1.344,2.634,1.144,2.864,1.16,3.22   c0.01,0.214,0.125,0.423,0.287,0.584C1.492,3.84,1.538,3.874,1.586,3.905C1.583,3.899,1.58,3.892,1.575,3.886   C1.382,3.621,1.232,2.862,2.242,2.697C2.445,2.664,2.648,2.63,2.85,2.584c0.178-0.041,0.496-0.141,0.531-0.16   c0.029-0.017-0.189,0.228-0.857,0.42C1.463,3.149,1.789,4.03,2.113,4.131C2.237,4.161,2.367,4.176,2.5,4.176   c0.926,0,1.677-0.75,1.677-1.676c0-0.333-0.097-0.643-0.264-0.903C3.868,1.695,3.805,1.779,3.726,1.855z"></path><path d="M0.824,2.5c0,0.184,0.03,0.359,0.084,0.525c0.02-0.182,0.082-0.354,0.198-0.5c0.21-0.267,0.536-0.392,0.875-0.459   C2.319,2,2.679,1.992,3.026,1.908c0.192-0.046,0.387-0.121,0.542-0.244C3.697,1.56,3.757,1.402,3.623,1.255   C3.574,1.211,3.522,1.169,3.468,1.131c0.098,0.201,0.022,0.5-0.773,0.578C2.491,1.73,2.288,1.749,2.087,1.777   C2.028,1.785,1.955,1.796,1.88,1.809c0,0,0.066-0.082,0.532-0.188c0.958-0.216,0.779-0.633,0.495-0.748   c-0.13-0.032-0.267-0.05-0.407-0.05C1.574,0.824,0.824,1.574,0.824,2.5z"></path></g></g><g id="SvgjsG2860" featureKey="UyNsn2-0" transform="matrix(3.690382297303242,0,0,3.690382297303242,100.85920373058818,-5.297106154590647)" fill="#3d1a68"><path d="M3.94 13.620000000000001 c-0.42666 -0.17334 -0.82332 -0.36666 -1.19 -0.58 s-0.68332 -0.47 -0.94998 -0.77 s-0.47332 -0.65334 -0.61998 -1.06 s-0.22 -0.89 -0.22 -1.45 c0 -0.69334 0.12 -1.3033 0.36 -1.83 s0.57666 -0.97 1.01 -1.33 s0.95668 -0.63334 1.57 -0.82 s1.2933 -0.28 2.04 -0.28 c0.61334 0 1.24 0.06334 1.88 0.19 s1.4067 0.34332 2.3 0.64998 l-1.36 2.44 c-0.86666 -0.41334 -1.78 -0.62 -2.74 -0.62 c-0.18666 0 -0.38 0.02 -0.58 0.06 s-0.38 0.11 -0.54 0.21 s-0.29334 0.23666 -0.4 0.41 s-0.16 0.4 -0.16 0.68 c0 0.22666 0.04334 0.41332 0.13 0.55998 s0.19666 0.27332 0.33 0.37998 s0.28668 0.19666 0.46002 0.27 s0.34668 0.14334 0.52002 0.21 l1.18 0.46 c0.50666 0.2 0.97 0.41 1.39 0.63 s0.77666 0.48666 1.07 0.8 s0.52 0.69668 0.68 1.15 s0.24 1.02 0.24 1.7 s-0.12334 1.3 -0.37 1.86 s-0.60666 1.0367 -1.08 1.43 s-1.0567 0.7 -1.75 0.92 s-1.4867 0.33 -2.38 0.33 c-0.41334 0 -0.79334 -0.01334 -1.14 -0.04 s-0.68332 -0.07332 -1.01 -0.13998 s-0.65332 -0.14666 -0.97998 -0.24 s-0.67666 -0.21334 -1.05 -0.36 l0.68 -2.8 c0.54666 0.14666 1.0833 0.27666 1.61 0.39 s1.0633 0.17 1.61 0.17 c0.73334 0 1.2933 -0.09666 1.68 -0.29 s0.61332 -0.56334 0.67998 -1.11 c0.02666 -0.28 -0.0066796 -0.51334 -0.10002 -0.7 s-0.22668 -0.34332 -0.40002 -0.46998 s-0.36668 -0.23 -0.58002 -0.31 l-0.64 -0.24 z M16.62 9.44 c0.69334 0 1.34 0.09668 1.94 0.29002 s1.1167 0.50334 1.55 0.93 s0.77334 0.98 1.02 1.66 s0.37 1.5 0.37 2.46 s-0.12334 1.78 -0.37 2.46 s-0.58666 1.2333 -1.02 1.66 s-0.95 0.73666 -1.55 0.93 s-1.2467 0.29 -1.94 0.29 c-0.70666 0 -1.3567 -0.09666 -1.95 -0.29 s-1.1067 -0.50334 -1.54 -0.93 s-0.77334 -0.98 -1.02 -1.66 s-0.37 -1.5 -0.37 -2.46 c0 -0.94666 0.12334 -1.7567 0.37 -2.43 s0.58666 -1.2267 1.02 -1.66 s0.94668 -0.75 1.54 -0.95 s1.2433 -0.3 1.95 -0.3 z M16.62 17.5 c0.6 0 1.07 -0.2 1.41 -0.6 s0.51 -1.1067 0.51 -2.12 s-0.17 -1.7233 -0.51 -2.13 s-0.81 -0.61 -1.41 -0.61 c-0.58666 0 -1.0567 0.21 -1.41 0.63 s-0.53 1.1233 -0.53 2.11 c0 1.0133 0.17334 1.72 0.52 2.12 s0.82 0.6 1.42 0.6 z M23.700000000000003 12.059999999999999 l-1.56 0.000039062 l0 -2.52 l1.56 0 l0 -0.34 c0.02666 -0.49334 0.12666 -0.96668 0.3 -1.42 s0.43334 -0.83334 0.78 -1.14 c0.72 -0.72 1.7067 -1.08 2.96 -1.08 c0.36 0 0.69666 0.02334 1.01 0.07 s0.69668 0.14332 1.15 0.28998 l-0.2 0.34 l-0.44 0.74 l-0.44 0.74 l-0.2 0.34 l-0.5 0 c-0.42666 0 -0.76666 0.08666 -1.02 0.26 s-0.38 0.46 -0.38 0.86 l0 0.34 l2.6 0 l-1.36 2.52 l-1.32 0 l0.08 0.56 l0 7.38 l-3.02 0 l0 -7.94 z M31.28 12.059999999999999 l-1.24 0 l0 -2.52 l1.24 0 l0 -2.84 l3 0 l0 2.84 l2.48 0 l-1.4 2.52 l-1.18 0 l0.1 0.64 l0 3.14 c0 0.34666 0.02334 0.62666 0.07 0.84 s0.12 0.38 0.22 0.5 s0.22666 0.20334 0.38 0.25 s0.33 0.07 0.53 0.07 c0.14666 0 0.32666 -0.01666 0.54 -0.05 s0.44 -0.07 0.68 -0.11 l0.16 1.34 l0.12 1.2 c-0.38666 0.08 -0.74 0.14 -1.06 0.18 s-0.64666 0.06 -0.98 0.06 c-1.24 0 -2.16 -0.28666 -2.76 -0.86 s-0.9 -1.52 -0.9 -2.84 l0 -4.36 z M37.32 9.54 l3.48 0 l1.96 6.62 l0.04 0.24 l0.04 -0.24 l1.92 -6.62 l3.44 0 l-3.92 10.48 l-3.12 0 z M52.519999999999996 9.56 l0 10.44 l-3.02 0 l0 -7.22 l0.1 -0.72 l-1.72 0 l1.36 -2.5 l3.28 0 z M52.44 8.7 l-3 0 l0 -2.72 l3 0 l0 2.72 z M58.16 17.38 l4.58 0 l0 2.62 l-8.46 0 l0 -2.26 l0.33 -0.37 l0.84 -0.94 l1.13 -1.26 l1.2 -1.33 l1.04 -1.16 l0.68 -0.74 l-0.32 0.1 l-2.32 0 l0 1.1 l-2.5 -0.76 l0 -2.82 l8.26 0 l0 2.36 z M68.42 9.44 c0.69334 0 1.3166 0.096622 1.87 0.28996 s1.0167 0.50668 1.39 0.94002 s0.66 0.99 0.86 1.67 s0.3 1.5 0.3 2.46 l0 0.31 l-0.04 0.63 l-5.6 0 l-0.42 -0.06 c0.01334 0.38666 0.05668 0.69666 0.13002 0.93 s0.18 0.41668 0.32 0.55002 s0.31 0.22668 0.51 0.28002 s0.42666 0.08668 0.68 0.10002 c0.41334 0.02666 0.77 -0.03334 1.07 -0.18 s0.58334 -0.44666 0.85 -0.9 c0.41334 0.13334 0.79334 0.26 1.14 0.38 c0.29334 0.10666 0.56 0.2 0.8 0.28 s0.36 0.11334 0.36 0.1 c-0.48 1 -1.0633 1.73 -1.75 2.19 s-1.51 0.69 -2.47 0.69 c-0.70666 0 -1.3467 -0.09334 -1.92 -0.28 s-1.06 -0.49 -1.46 -0.91 s-0.71 -0.96666 -0.93 -1.64 s-0.33 -1.4967 -0.33 -2.47 c0 -0.94666 0.11 -1.7567 0.33 -2.43 s0.53 -1.2267 0.93 -1.66 s0.88666 -0.75334 1.46 -0.96 s1.2133 -0.31 1.92 -0.31 z M69.52000000000001 13.440000000000001 l0.30004 0.04 c-0.02666 -0.46666 -0.15 -0.83 -0.37 -1.09 s-0.56334 -0.39 -1.03 -0.39 c-0.53334 0 -0.91668 0.13 -1.15 0.39 s-0.37668 0.62334 -0.43002 1.09 c0.06666 -0.01334 0.12666 -0.02334 0.18 -0.03 s0.11334 -0.01 0.18 -0.01 l2.32 0 z"></path></g>
			</g>
		</svg>
	